{
  "accessors": [
    {
      "bufferView": 1,
      "componentType": 5126,
      "count": 65532,
      "max": [
        53.946056365966797,
        -25.271944046020508,
        61.651283264160156
      ],
      "min": [
        -69.654891967773438,
        -94.152061462402344,
        -51.962081909179688
      ],
      "type": "VEC3"
    },
    {
      "bufferView": 1,
      "byteOffset": 786384,
      "componentType": 5126,
      "count": 65532,
      "max": [
        0.9999968409538269,
        0.99998664855957031,
        0.99997979402542114
      ],
      "min": [
        -0.99993425607681274,
        -0.99999028444290161,
        -0.99992543458938599
      ],
      "type": "VEC3"
    },
    {
      "bufferView": 2,
      "componentType": 5126,
      "count": 65532,
      "max": [
        1,
        1,
        1,
        1
      ],
      "min": [
        1,
        1,
        1,
        1
      ],
      "type": "VEC4"
    },
    {
      "bufferView": 0,
      "componentType": 5125,
      "count": 204486,
      "max": [
        65531
      ],
      "min": [
        0
      ],
      "type": "SCALAR"
    },
    {
      "bufferView": 1,
      "byteOffset": 1572768,
      "componentType": 5126,
      "count": 65533,
      "max": [
        61.572563171386719,
        -38.836643218994141,
        61.327384948730469
      ],
      "min": [
        -70.302536010742188,
        -92.57830810546875,
        -50.900123596191406
      ],
      "type": "VEC3"
    },
    {
      "bufferView": 1,
      "byteOffset": 2359164,
      "componentType": 5126,
      "count": 65533,
      "max": [
        0.9999968409538269,
        0.99990826845169067,
        0.99997550249099731
      ],
      "min": [
        -0.99999463558197021,
        -0.99998223781585693,
        -0.9999232292175293
      ],
      "type": "VEC3"
    },
    {
      "bufferView": 2,
      "byteOffset": 1048512,
      "componentType": 5126,
      "count": 65533,
      "max": [
        1,
        1,
        1,
        1
      ],
      "min": [
        1,
        1,
        1,
        1
      ],
      "type": "VEC4"
    },
    {
      "bufferView": 0,
      "byteOffset": 817944,
      "componentType": 5125,
      "count": 177399,
      "max": [
        65532
      ],
      "min": [
        0
      ],
      "type": "SCALAR"
    },
    {
      "bufferView": 1,
      "byteOffset": 3145560,
      "componentType": 5126,
      "count": 65532,
      "max": [
        65.634819030761719,
        -47.469951629638672,
        60.847126007080078
      ],
      "min": [
        -70.302536010742188,
        -113.35334777832031,
        -50.718379974365234
      ],
      "type": "VEC3"
    },
    {
      "bufferView": 1,
      "byteOffset": 3931944,
      "componentType": 5126,
      "count": 65532,
      "max": [
        0.99999034404754639,
        0.9999769926071167,
        0.99996006488800049
      ],
      "min": [
        -0.99995964765548706,
        -0.99995750188827515,
        -0.99994099140167236
      ],
      "type": "VEC3"
    },
    {
      "bufferView": 2,
      "byteOffset": 2097040,
      "componentType": 5126,
      "count": 65532,
      "max": [
        1,
        1,
        1,
        1
      ],
      "min": [
        1,
        1,
        1,
        1
      ],
      "type": "VEC4"
    },
    {
      "bufferView": 0,
      "byteOffset": 1527540,
      "componentType": 5125,
      "count": 162759,
      "max": [
        65531
      ],
      "min": [
        0
      ],
      "type": "SCALAR"
    },
    {
      "bufferView": 1,
      "byteOffset": 4718328,
      "componentType": 5126,
      "count": 65533,
      "max": [
        67.921600341796875,
        -56.244483947753906,
        60.923984527587891
      ],
      "min": [
        -70.175392150878906,
        -148.81668090820312,
        -55.179153442382812
      ],
      "type": "VEC3"
    },
    {
      "bufferView": 1,
      "byteOffset": 5504724,
      "componentType": 5126,
      "count": 65533,
      "max": [
        0.99997395277023315,
        0.99996912479400635,
        0.99999731779098511
      ],
      "min": [
        -0.99993705749511719,
        -0.99988394975662231,
        -0.99994766712188721
      ],
      "type": "VEC3"
    },
    {
      "bufferView": 2,
      "byteOffset": 3145552,
      "componentType": 5126,
      "count": 65533,
      "max": [
        1,
        1,
        1,
        1
      ],
      "min": [
        1,
        1,
        1,
        1
      ],
      "type": "VEC4"
    },
    {
      "bufferView": 0,
      "byteOffset": 2178576,
      "componentType": 5125,
      "count": 185295,
      "max": [
        65532
      ],
      "min": [
        0
      ],
      "type": "SCALAR"
    },
    {
      "bufferView": 1,
      "byteOffset": 6291120,
      "componentType": 5126,
      "count": 65532,
      "max": [
        70.101600646972656,
        -66.434982299804688,
        59.392711639404297
      ],
      "min": [
        -67.637229919433594,
        -164.27885437011719,
        -62.832237243652344
      ],
      "type": "VEC3"
    },
    {
      "bufferView": 1,
      "byteOffset": 7077504,
      "componentType": 5126,
      "count": 65532,
      "max": [
        0.99997419118881226,
        0.99994254112243652,
        0.99999761581420898
      ],
      "min": [
        -0.9999200701713562,
        -0.99997657537460327,
        -0.99999052286148071
      ],
      "type": "VEC3"
    },
    {
      "bufferView": 2,
      "byteOffset": 4194080,
      "componentType": 5126,
      "count": 65532,
      "max": [
        1,
        1,
        1,
        1
      ],
      "min": [
        1,
        1,
        1,
        1
      ],
      "type": "VEC4"
    },
    {
      "bufferView": 0,
      "byteOffset": 2919756,
      "componentType": 5125,
      "count": 211629,
      "max": [
        65531
      ],
      "min": [
        0
      ],
      "type": "SCALAR"
    },
    {
      "bufferView": 1,
      "byteOffset": 7863888,
      "componentType": 5126,
      "count": 46979,
      "max": [
        70.033935546875,
        -25.32513427734375,
        51.041675567626953
      ],
      "min": [
        -57.468696594238281,
        -174.72810363769531,
        -62.747737884521484
      ],
      "type": "VEC3"
    },
    {
      "bufferView": 1,
      "byteOffset": 8427636,
      "componentType": 5126,
      "count": 46979,
      "max": [
        0.99992972612380981,
        0.99999475479125977,
        0.99997657537460327
      ],
      "min": [
        -0.99999737739562988,
        -0.99993288516998291,
        -0.99998593330383301
      ],
      "type": "VEC3"
    },
    {
      "bufferView": 2,
      "byteOffset": 5242592,
      "componentType": 5126,
      "count": 46979,
      "max": [
        1,
        1,
        1,
        1
      ],
      "min": [
        1,
        1,
        1,
        1
      ],
      "type": "VEC4"
    },
    {
      "bufferView": 0,
      "byteOffset": 3766272,
      "componentType": 5125,
      "count": 173838,
      "max": [
        46978
      ],
      "min": [
        0
      ],
      "type": "SCALAR"
    }
  ],
  "asset": {
    "extras": {
      "author": "richimp95 (https://sketchfab.com/richimp95)",
      "license": "CC-BY-4.0 (http://creativecommons.org/licenses/by/4.0/)",
      "source": "https://sketchfab.com/3d-models/cardiac-computed-tomography-heart-model-f057214d53c84ab4b33100f765206e42",
      "title": "Cardiac Computed Tomography Heart Model"
    },
    "generator": "Sketchfab-7.72.0",
    "version": "2.0"
  },
  "bufferViews": [
    {
      "buffer": 0,
      "byteLength": 4461624,
      "byteOffset": 0,
      "name": "floatBufferViews",
      "target": 34963
    },
    {
      "buffer": 0,
      "byteLength": 8991384,
      "byteOffset": 4461624,
      "byteStride": 12,
      "name": "floatBufferViews",
      "target": 34962
    },
    {
      "buffer": 0,
      "byteLength": 5994256,
      "byteOffset": 13453008,
      "byteStride": 16,
      "name": "floatBufferViews",
      "target": 34962
    }
  ],
  "buffers": [
    {
      "byteLength": 19447264,
      "uri": "scene.bin"
    }
  ],
  "materials": [
    {
      "doubleSided": true,
      "name": "material_0",
      "pbrMetallicRoughness": {
        "baseColorFactor": [
          0.27921353525139647,
          0.0069807215963809677,
          0.0069807215963809677,
          1
        ],
        "metallicFactor": 0,
        "roughnessFactor": 0.42590910015684186
      }
    }
  ],
  "meshes": [
    {
      "primitives": [
        {
          "attributes": {
            "COLOR_0": 2,
            "NORMAL": 1,
            "POSITION": 0
          },
          "indices": 3,
          "material": 0,
          "mode": 4
        }
      ]
    },
    {
      "primitives": [
        {
          "attributes": {
            "COLOR_0": 6,
            "NORMAL": 5,
            "POSITION": 4
          },
          "indices": 7,
          "material": 0,
          "mode": 4
        }
      ]
    },
    {
      "primitives": [
        {
          "attributes": {
            "COLOR_0": 10,
            "NORMAL": 9,
            "POSITION": 8
          },
          "indices": 11,
          "material": 0,
          "mode": 4
        }
      ]
    },
    {
      "primitives": [
        {
          "attributes": {
            "COLOR_0": 14,
            "NORMAL": 13,
            "POSITION": 12
          },
          "indices": 15,
          "material": 0,
          "mode": 4
        }
      ]
    },
    {
      "primitives": [
        {
          "attributes": {
            "COLOR_0": 18,
            "NORMAL": 17,
            "POSITION": 16
          },
          "indices": 19,
          "material": 0,
          "mode": 4
        }
      ]
    },
    {
      "primitives": [
        {
          "attributes": {
            "COLOR_0": 22,
            "NORMAL": 21,
            "POSITION": 20
          },
          "indices": 23,
          "material": 0,
          "mode": 4
        }
      ]
    }
  ],
  "nodes": [
    {
      "children": [
        1
      ],
      "name": "RootNode (gltf orientation matrix)",
      "rotation": [
        -0.70710678118654746,
        -0,
        -0,
        0.70710678118654757
      ]
    },
    {
      "children": [
        2
      ],
      "matrix": [
        6.6613381477509392e-16,
        -1,
        -3.3306690738754696e-16,
        0,
        5.5511151231257827e-16,
        6.6613381477509392e-16,
        -1,
        0,
        1,
        3.3306690738754696e-16,
        8.8817841970012523e-16,
        0,
        0.48994827270507812,
        -100.10027313232422,
        -100.59021759033203,
        1
      ],
      "name": "RootNode (model correction matrix)"
    },
    {
      "children": [
        3,
        4,
        5,
        6,
        7,
        8
      ],
      "name": "Corazon exterior medio limpio OBJ reducido.obj.cleaner.materialmerger.gles"
    },
    {
      "mesh": 0,
      "name": ""
    },
    {
      "mesh": 1,
      "name": ""
    },
    {
      "mesh": 2,
      "name": ""
    },
    {
      "mesh": 3,
      "name": ""
    },
    {
      "mesh": 4,
      "name": ""
    },
    {
      "mesh": 5,
      "name": ""
    }
  ],
  "scene": 0,
  "scenes": [
    {
      "name": "OSG_Scene",
      "nodes": [
        0
      ]
    }
  ]
}

