{
  "accessors": [
    {
      "bufferView": 2,
      "componentType": 5126,
      "count": 36700,
      "max": [
        19.976144790649414,
        58.114551544189453,
        11.240207672119141
      ],
      "min": [
        -16.630714416503906,
        -3.4790170192718506,
        -13.766172409057617
      ],
      "type": "VEC3"
    },
    {
      "bufferView": 2,
      "byteOffset": 440400,
      "componentType": 5126,
      "count": 36700,
      "max": [
        0.99997109174728394,
        0.99999892711639404,
        0.99997192621231079
      ],
      "min": [
        -0.99997246265411377,
        -0.99999994039535522,
        -0.99994701147079468
      ],
      "type": "VEC3"
    },
    {
      "bufferView": 3,
      "componentType": 5126,
      "count": 36700,
      "max": [
        0.99997603893280029,
        0.99994575977325439,
        0.99980580806732178,
        1
      ],
      "min": [
        -0.99983257055282593,
        -0.99996024370193481,
        -0.99999469518661499,
        1
      ],
      "type": "VEC4"
    },
    {
      "bufferView": 1,
      "componentType": 5126,
      "count": 36700,
      "max": [
        0.93853801488876343,
        0.96723699569702148
      ],
      "min": [
        0.032763000577688217,
        0.023416999727487564
      ],
      "type": "VEC2"
    },
    {
      "bufferView": 0,
      "componentType": 5125,
      "count": 194718,
      "max": [
        36699
      ],
      "min": [
        0
      ],
      "type": "SCALAR"
    }
  ],
  "asset": {
    "extras": {
      "author": "campkb (https://sketchfab.com/campkb)",
      "license": "CC-BY-4.0 (http://creativecommons.org/licenses/by/4.0/)",
      "source": "https://sketchfab.com/models/286054917c0345cfbc08e476bb474bc4",
      "title": "Dark Forces - Storm Trooper"
    },
    "generator": "Sketchfab-3.18.6",
    "version": "2.0"
  },
  "bufferViews": [
    {
      "buffer": 0,
      "byteLength": 778872,
      "byteOffset": 0,
      "name": "floatBufferViews",
      "target": 34963
    },
    {
      "buffer": 0,
      "byteLength": 293600,
      "byteOffset": 778872,
      "byteStride": 8,
      "name": "floatBufferViews",
      "target": 34962
    },
    {
      "buffer": 0,
      "byteLength": 880800,
      "byteOffset": 1072472,
      "byteStride": 12,
      "name": "floatBufferViews",
      "target": 34962
    },
    {
      "buffer": 0,
      "byteLength": 587200,
      "byteOffset": 1953272,
      "byteStride": 16,
      "name": "floatBufferViews",
      "target": 34962
    }
  ],
  "buffers": [
    {
      "byteLength": 2540472,
      "uri": "scene.bin"
    }
  ],
  "images": [
    {
      "uri": "textures/material_0_baseColor.png"
    }
  ],
  "materials": [
    {
      "doubleSided": true,
      "emissiveFactor": [
        0,
        0,
        0
      ],
      "name": "material_0",
      "pbrMetallicRoughness": {
        "baseColorFactor": [
          0.45903201220000001,
          0.45903201220000001,
          0.45903201220000001,
          1
        ],
        "baseColorTexture": {
          "index": 0,
          "texCoord": 0
        },
        "metallicFactor": 0.96512957320000003,
        "roughnessFactor": 0.43765867479999998
      }
    }
  ],
  "meshes": [
    {
      "primitives": [
        {
          "attributes": {
            "NORMAL": 1,
            "POSITION": 0,
            "TANGENT": 2,
            "TEXCOORD_0": 3
          },
          "indices": 4,
          "material": 0,
          "mode": 4
        }
      ]
    }
  ],
  "nodes": [
    {
      "children": [
        1
      ],
      "name": "RootNode (gltf orientation matrix)",
      "rotation": [
        -0.70710678118654746,
        -0,
        -0,
        0.70710678118654757
      ]
    },
    {
      "children": [
        2
      ],
      "matrix": [
        0.99709188938140869,
        1.000000013351432e-10,
        -0.076208971440792084,
        0,
        0.076208971440792084,
        -1.000000013351432e-10,
        0.99709188938140869,
        0,
        1.000000013351432e-10,
        -1,
        -1.000000013351432e-10,
        0,
        0.19801256060600281,
        26.054683685302734,
        -28.636232376098633,
        1
      ],
      "name": "RootNode (model correction matrix)"
    },
    {
      "children": [
        3
      ],
      "name": "Dark Forces - Storm Trooper.obj.cleaner.materialmerger.gles"
    },
    {
      "mesh": 0,
      "name": ""
    }
  ],
  "samplers": [
    {
      "magFilter": 9729,
      "minFilter": 9987,
      "wrapS": 10497,
      "wrapT": 10497
    }
  ],
  "scene": 0,
  "scenes": [
    {
      "name": "OSG_Scene",
      "nodes": [
        0
      ]
    }
  ],
  "textures": [
    {
      "sampler": 0,
      "source": 0
    }
  ]
}

